<svg xmlns="http://www.w3.org/2000/svg" viewBox="0 0 165.54 165.54"><defs><style>.cls-1{fill:#3d474b;}.cls-2{fill:#3c464a;}</style></defs><title>neurondAI_favicon</title><g id="Layer_2" data-name="Layer 2"><g id="Layer_1-2" data-name="Layer 1"><path class="cls-1" d="M165.54,82.83A82.77,82.77,0,1,1,83,0,82.77,82.77,0,0,1,165.54,82.83Zm-12.9,0a69.87,69.87,0,1,0-69.87,69.81A70,70,0,0,0,152.64,82.83Z"/><path class="cls-1" d="M26.35,79.45H67.27a12.2,12.2,0,0,0-4.81-9.31,13.22,13.22,0,0,0-8.72-3.07c-3.06,0-6.13,0-9.32,0V51.58C51,51.88,57.65,50.67,64,53c9.91,3.68,16.22,10.79,18.69,21,2.72,11.29.73,21.7-7.32,30.32C60.57,120.21,35.13,114.29,28,93.5A32.41,32.41,0,0,1,26.35,79.45ZM41.84,90c3,6.86,9.63,11,15.44,9.63,5-1.15,10.09-6,10-9.63Z"/><path class="cls-2" d="M128.43,113.46H112.35V79.68h16.08Z"/><path class="cls-2" d="M128.43,66.59H112.36V51.83h16.07Z"/></g></g></svg>