<svg xmlns="http://www.w3.org/2000/svg" version="1.1" viewBox="0 0 750.78 165.54">
   <defs>
      <style>.cls-1{fill:#fff;}</style>
   </defs>
   <title>white</title>
   <g id="Layer_2" data-name="Layer 2">
      <g id="Layer_1-2" data-name="Layer 1">
         <path class="cls-1" d="M668.08,165.54a82.77,82.77,0,1,1,82.7-82.73A82.78,82.78,0,0,1,668.08,165.54ZM738,82.79a70,70,0,1,0-71.23,70A70,70,0,0,0,738,82.79Z"/>
         <path class="cls-1" d="M537.89,55.07V37.17h15.55c0,.72.14,1.47.14,2.22,0,13.69-.05,27.37,0,41.06.06,11.23-4.07,20.43-13.29,26.92a30.55,30.55,0,0,1-48.22-21.2c-2.57-20.53,14.08-37,34.45-34.44C530.37,52.22,534,53.91,537.89,55.07Zm-15.11,42.6c8.15,0,15.13-7.16,15.13-15.5,0-8.18-7.22-15.54-15.22-15.52S507.6,74,507.64,82.25A15.42,15.42,0,0,0,522.78,97.67Z"/>
         <path class="cls-1" d="M348.61,113.16a30.73,30.73,0,0,1-30.89-31c0-17.41,13.58-30.8,31.23-30.79,17.23,0,30.7,13.67,30.69,31.13A30.85,30.85,0,0,1,348.61,113.16Zm.27-47c-8.52-.13-15.7,7-15.95,15.83a16.25,16.25,0,0,0,15.68,16.38c8.52.13,15.91-7.33,15.95-16.11A16.14,16.14,0,0,0,348.88,66.15Z"/>
         <path class="cls-1" d="M462.7,111.57H446.43v-2.51q0-15.47,0-30.94a11,11,0,0,0-9.75-11c-5.59-.74-11.28,2.83-12.52,8.15a28.82,28.82,0,0,0-.35,6.38c0,9.1,0,18.2,0,27.29v2.7H407.3V78.58a27.75,27.75,0,0,1,20.8-26.74c16-4,31.27,5.59,34.32,21.66a26.81,26.81,0,0,1,.39,4.91q0,15.9,0,31.8C462.82,110.63,462.75,111.06,462.7,111.57Z"/>
         <path class="cls-1" d="M55.43,111.79c-5.17,0-10.11,0-15,0-1.68,0-1.58-1-1.58-2.11q0-16.11,0-32.22c0-4.42-2.36-7.42-6.18-9.27a10.87,10.87,0,0,0-11.4.8c-3.55,2.37-5.09,5.77-5.05,10.06.09,9.88,0,19.77,0,29.65v2.79H0v-2C0,99,0,88.56,0,78.11c0-9.9,4.55-17.39,12.64-22.79,14.54-9.69,38.1-3.13,42.22,17.88a27.32,27.32,0,0,1,.61,5.08c.06,10.74,0,21.49,0,32.23C55.51,110.85,55.46,111.2,55.43,111.79Z"/>
         <path class="cls-1" d="M207.72,52.81H224V85.54c0,15.62-11.69,27.43-27.34,27.63-14.44.18-25.56-9-27.85-23.12a14.08,14.08,0,0,1-.2-2.14q0-16.86,0-33.73c0-.42.06-.83.1-1.37h16.16v2.6c0,10.24-.06,20.49,0,30.73a10.78,10.78,0,0,0,8.59,10.65,11.29,11.29,0,0,0,12.79-5.55,14.84,14.84,0,0,0,1.38-6.18c.14-10,.06-19.9.06-29.86Z"/>
         <path class="cls-1" d="M140.08,85.3H99.18A12.29,12.29,0,0,0,104,94.52a13.19,13.19,0,0,0,8.72,3.09c3.06,0,6.13,0,9.34,0V113c-4.4,0-8.89.23-13.34,0C95.22,112.1,84.53,100.34,83,87.13c-1.17-10,.83-19.12,7.79-26.62,14.9-16,40.26-10.46,47.68,10.37A33.54,33.54,0,0,1,140.08,85.3ZM122.45,74.82h1.93C122.73,68.94,115.24,64,109.8,65s-10.88,6.1-10.53,9.81"/>
         <path class="cls-1" d="M256.38,111.68v-2.42c0-8.23.06-16.47,0-24.7a32.51,32.51,0,0,1,33.79-32.48c1.78.06,3.57,0,5.53,0V67.5c-3.12,0-6.31,0-9.5,0a13.52,13.52,0,0,0-12.84,9.82,19.46,19.46,0,0,0-.51,4.88c0,9,0,17.9,0,26.85v2.63Z"/>
         <path class="cls-1" d="M611.7,79.52h40.93a12.35,12.35,0,0,0-5.37-9.91,12.68,12.68,0,0,0-8-2.64c-3.08,0-6.15,0-9.43,0V51.77c8.57-.06,17.18-1,25,4C666,63,671.3,76.8,667.9,90.37c-2.86,11.45-9.91,19.18-21.36,22.08-13.68,3.46-27.48-4.34-32.77-17.85A32.74,32.74,0,0,1,611.7,79.52Zm41,10.36H627c1.9,6.18,8.88,10.8,14.9,10C646.93,99.18,652.46,94.23,652.69,89.88Z"/>
         <path class="cls-1" d="M697.67,113.28V79.81h15.89v33.47Z"/>
         <path class="cls-1" d="M697.67,66.42V52h15.89V66.42Z"/>
      </g>
   </g>
</svg>